<svg xmlns="http://www.w3.org/2000/svg" xmlns:xlink="http://www.w3.org/1999/xlink" width="512" zoomAndPan="magnify" viewBox="0 0 384 383.999986" height="512" preserveAspectRatio="xMidYMid meet" version="1.0"><path stroke-linecap="round" transform="matrix(10.454128, 0.840482, -0.841455, 10.466228, 23.431472, 273.234938)" fill="none" stroke-linejoin="miter" d="M 0.500162 0.0000892634 L 18.808189 0.00000789582 " stroke="#cc0000" stroke-width="1" stroke-opacity="1" stroke-miterlimit="4"/><path stroke-linecap="round" transform="matrix(8.765085, -5.767471, 5.771648, 8.771434, 23.009905, 275.945897)" fill="none" stroke-linejoin="miter" d="M 0.499837 -0.0000684345 L 10.294428 0.00012926 " stroke="#cc0000" stroke-width="1" stroke-opacity="1" stroke-miterlimit="4"/><path stroke-linecap="round" transform="matrix(10.483073, -0.673235, 0.672936, 10.478413, 23.010745, 273.191405)" fill="none" stroke-linejoin="miter" d="M 0.50015 0.0000746957 L 17.064061 -0.0000146206 " stroke="#cc0000" stroke-width="1" stroke-opacity="1" stroke-miterlimit="4"/><path stroke-linecap="round" transform="matrix(10.524529, 0.812759, -0.808458, 10.468829, 109.481543, 215.104099)" fill="none" stroke-linejoin="miter" d="M 0.499856 0.000129625 L 3.905942 -0.000128607 " stroke="#cc0000" stroke-width="1" stroke-opacity="1" stroke-miterlimit="4"/><path stroke-linecap="round" transform="matrix(6.399069, 8.349256, -8.333843, 6.387256, 48.081387, 81.585015)" fill="none" stroke-linejoin="miter" d="M 0.499881 -0.000130859 L 16.398426 0.0000508855 " stroke="#cc0000" stroke-width="1" stroke-opacity="1" stroke-miterlimit="4"/><path stroke-linecap="round" transform="matrix(5.239863, 9.075709, -9.093266, 5.25, 48.097028, 80.641575)" fill="none" stroke-linejoin="miter" d="M 0.500107 -0.000135382 L 14.529924 0.000150388 " stroke="#cc0000" stroke-width="1" stroke-opacity="1" stroke-miterlimit="4"/><path stroke-linecap="round" transform="matrix(7.972581, 6.774937, -6.799284, 8.001232, 150.031167, 216.884997)" fill="none" stroke-linejoin="miter" d="M 0.499927 0.000183502 L 6.668354 -0.0000222883 " stroke="#cc0000" stroke-width="1" stroke-opacity="1" stroke-miterlimit="4"/><path stroke-linecap="round" transform="matrix(9.595639, 4.353643, -4.338313, 9.561852, 195.784283, 258.409727)" fill="none" stroke-linejoin="miter" d="M 0.49997 -0.0000501759 L 4.553724 -0.0000671766 " stroke="#cc0000" stroke-width="1" stroke-opacity="1" stroke-miterlimit="4"/><path stroke-linecap="round" transform="matrix(8.390992, -6.228643, 6.258381, 8.431053, 222.155586, 291.90188)" fill="none" stroke-linejoin="miter" d="M 0.499951 0.000142256 L 2.084135 0.000157422 " stroke="#cc0000" stroke-width="1" stroke-opacity="1" stroke-miterlimit="4"/><path stroke-linecap="round" transform="matrix(10.418806, 0.766305, -0.770196, 10.471714, 200.461163, 287.602038)" fill="none" stroke-linejoin="miter" d="M 0.500119 -0.0000866052 L 2.372103 -0.000174163 " stroke="#cc0000" stroke-width="1" stroke-opacity="1" stroke-miterlimit="4"/><path stroke-linecap="round" transform="matrix(7.262707, 7.558254, -7.571171, 7.275119, 206.692812, 285.117633)" fill="none" stroke-linejoin="miter" d="M 0.500119 0.000107099 L 4.079821 -0.000113956 " stroke="#cc0000" stroke-width="1" stroke-opacity="1" stroke-miterlimit="4"/><path stroke-linecap="round" transform="matrix(-1.028565, 10.520234, -10.450172, -1.021715, 240.550519, 275.037518)" fill="none" stroke-linejoin="miter" d="M 0.499938 0.000109481 L 3.828699 -0.0000791065 " stroke="#cc0000" stroke-width="1" stroke-opacity="1" stroke-miterlimit="4"/><path stroke-linecap="round" transform="matrix(4.150836, 9.611969, -9.639576, 4.162758, 201.745143, 189.903208)" fill="none" stroke-linejoin="miter" d="M 0.500144 0.0000876284 L 9.242879 0.000149569 " stroke="#cc0000" stroke-width="1" stroke-opacity="1" stroke-miterlimit="4"/><path stroke-linecap="round" transform="matrix(9.354694, -4.672485, 4.691836, 9.393436, 151.470199, 219.93256)" fill="none" stroke-linejoin="miter" d="M 0.500019 0.000152001 L 5.453776 -0.0000693072 " stroke="#cc0000" stroke-width="1" stroke-opacity="1" stroke-miterlimit="4"/><path stroke-linecap="round" transform="matrix(-3.226265, 9.949671, -9.988032, -3.238704, 193.065328, 154.718733)" fill="none" stroke-linejoin="miter" d="M 0.500131 -0.000135456 L 5.02213 -0.0000680259 " stroke="#cc0000" stroke-width="1" stroke-opacity="1" stroke-miterlimit="4"/><path stroke-linecap="round" transform="matrix(9.002125, -5.418752, 5.415042, 8.995961, 188.778434, 161.326466)" fill="none" stroke-linejoin="miter" d="M 0.500138 0.0000941117 L 17.417287 -0.000132845 " stroke="#cc0000" stroke-width="1" stroke-opacity="1" stroke-miterlimit="4"/><path stroke-linecap="round" transform="matrix(6.194947, -8.473996, 8.476457, 6.196746, 230.24583, 225.601374)" fill="none" stroke-linejoin="miter" d="M 0.500109 -0.0000271947 L 18.720234 -0.000217227 " stroke="#cc0000" stroke-width="1" stroke-opacity="1" stroke-miterlimit="4"/><path stroke-linecap="round" transform="matrix(6.035908, 8.58402, -8.589178, 6.039535, 215.499497, 201.198471)" fill="none" stroke-linejoin="miter" d="M 0.500033 0.000235694 L 5.074794 0.000184182 " stroke="#cc0000" stroke-width="1" stroke-opacity="1" stroke-miterlimit="4"/><path stroke-linecap="round" transform="matrix(8.359445, 6.173183, -6.237487, 8.446522, 200.075603, 191.58892)" fill="none" stroke-linejoin="miter" d="M 0.499906 0.000100936 L 2.098726 -0.000209593 " stroke="#cc0000" stroke-width="1" stroke-opacity="1" stroke-miterlimit="4"/><path stroke-linecap="round" transform="matrix(-7.912235, 6.913595, -6.908856, -7.906812, 295.244866, 202.436821)" fill="none" stroke-linejoin="miter" d="M 0.500035 -0.0000851364 L 7.637866 -0.0000322849 " stroke="#cc0000" stroke-width="1" stroke-opacity="1" stroke-miterlimit="4"/><path stroke-linecap="round" transform="matrix(-4.71607, 9.398007, -9.384658, -4.709372, 292.981069, 202.96825)" fill="none" stroke-linejoin="miter" d="M 0.500143 0.000134592 L 12.053876 0.00014148 " stroke="#cc0000" stroke-width="1" stroke-opacity="1" stroke-miterlimit="4"/><path stroke-linecap="round" transform="matrix(-6.215348, 8.493352, -8.473485, -6.200809, 307.133889, 219.937161)" fill="none" stroke-linejoin="miter" d="M 0.499918 -0.0000730496 L 11.401452 0.0000432587 " stroke="#cc0000" stroke-width="1" stroke-opacity="1" stroke-miterlimit="4"/><path stroke-linecap="round" transform="matrix(-6.452006, -8.12517, 8.222828, -6.529554, 306.855365, 225.601535)" fill="none" stroke-linejoin="miter" d="M 0.500019 -0.0000406203 L 2.319557 0.000128155 " stroke="#cc0000" stroke-width="1" stroke-opacity="1" stroke-miterlimit="4"/><path stroke-linecap="round" transform="matrix(-10.399736, 0.00000000000001051, -0.000000000000010612, -10.499999, 322.140363, 205.862297)" fill="none" stroke-linejoin="miter" d="M 0.499912 -0.0000937093 L 2.889922 -0.0000937093 " stroke="#cc0000" stroke-width="1" stroke-opacity="1" stroke-miterlimit="4"/><path stroke-linecap="round" transform="matrix(-6.761444, -8.088648, 8.056074, -6.734215, 360.003787, 257.638427)" fill="none" stroke-linejoin="miter" d="M 0.499908 0.000162897 L 6.401332 0.000138315 " stroke="#cc0000" stroke-width="1" stroke-opacity="1" stroke-miterlimit="4"/><path stroke-linecap="round" transform="matrix(-8.880775, -5.508238, 5.534432, -8.923006, 360.895788, 257.510459)" fill="none" stroke-linejoin="miter" d="M 0.499793 -0.0000373423 L 6.10388 -0.000200277 " stroke="#cc0000" stroke-width="1" stroke-opacity="1" stroke-miterlimit="4"/><path stroke-linecap="round" transform="matrix(3.102587, -10.047165, 10.032544, 3.098072, 302.170296, 209.260075)" fill="none" stroke-linejoin="miter" d="M 0.499867 0.00014731 L 14.050335 -0.0000961274 " stroke="#cc0000" stroke-width="1" stroke-opacity="1" stroke-miterlimit="4"/></svg>